HIERARCHY
ROOT hip
{
  OFFSET 21.8165 79.7006 224.303
  CHANNELS 6 Xposition Yposition Zposition Zrotation Xrotation Yrotation
  JOINT abdomen
  {
    OFFSET 0 20.6881 -0.73152
    CHANNELS 3 Zrotation Xrotation Yrotation
    JOINT chest
    {
      OFFSET 0 11.7043 -0.48768
      CHANNELS 3 Zrotation Xrotation Yrotation
      JOINT neck
      {
        OFFSET 0 22.1894 -2.19456
        CHANNELS 3 Zrotation Xrotation Yrotation
        JOINT head
        {
          OFFSET -0.24384 7.07133 1.2192
          CHANNELS 3 Zrotation Xrotation Yrotation
          JOINT leftEye
          {
            OFFSET 4.14528 8.04674 8.04672
            CHANNELS 3 Zrotation Xrotation Yrotation
            End Site
            {
              OFFSET 1 0 0
            }
          }
          JOINT rightEye
          {
            OFFSET -3.6576 8.04674 8.04672
            CHANNELS 3 Zrotation Xrotation Yrotation
            End Site
            {
              OFFSET 1 0 0
            }
          }
        }
      }
      JOINT rCollar
      {
        OFFSET -2.68224 19.2634 -4.8768
        CHANNELS 3 Zrotation Xrotation Yrotation
        JOINT rShldr
        {
          OFFSET -8.77824 -1.95073 1.46304
          CHANNELS 3 Zrotation Xrotation Yrotation
          JOINT rForeArm
          {
            OFFSET -28.1742 -1.7115 0.48768
            CHANNELS 3 Zrotation Xrotation Yrotation
            JOINT rHand
            {
              OFFSET -22.5879 0.773209 7.07136
              CHANNELS 3 Zrotation Xrotation Yrotation
              JOINT rThumb1
              {
                OFFSET -1.2192 -0.487915 3.41376
                CHANNELS 3 Zrotation Xrotation Yrotation
                JOINT rThumb2
                {
                  OFFSET -3.37035 -0.52449 3.41376
                  CHANNELS 3 Zrotation Xrotation Yrotation
                  End Site
                  {
                    OFFSET -1.78271 -1.18214 1.43049
                  }
                }
              }
              JOINT rIndex1
              {
                OFFSET -7.75947 0.938293 5.60832
                CHANNELS 3 Zrotation Xrotation Yrotation
                JOINT rIndex2
                {
                  OFFSET -2.54057 -0.884171 1.56538
                  CHANNELS 3 Zrotation Xrotation Yrotation
                  End Site
                  {
                    OFFSET -1.62519 -0.234802 1.16502
                  }
                }
              }
              JOINT rMid1
              {
                OFFSET -8.24714 1.18213 3.41376
                CHANNELS 3 Zrotation Xrotation Yrotation
                JOINT rMid2
                {
                  OFFSET -3.10165 -0.590103 1.0647
                  CHANNELS 3 Zrotation Xrotation Yrotation
                  End Site
                  {
                    OFFSET -2.48547 -0.328903 0.83742
                  }
                }
              }
              JOINT rRing1
              {
                OFFSET -8.82822 0.546677 1.51678
                CHANNELS 3 Zrotation Xrotation Yrotation
                JOINT rRing2
                {
                  OFFSET -2.60934 -0.819778 -0.0198488
                  CHANNELS 3 Zrotation Xrotation Yrotation
                  End Site
                  {
                    OFFSET -2.33842 -0.294052 0.168128
                  }
                }
              }
              JOINT rPinky1
              {
                OFFSET -8.27202 -0.0477905 -0.4584
                CHANNELS 3 Zrotation Xrotation Yrotation
                JOINT rPinky2
                {
                  OFFSET -1.82734 -0.647385 -0.700984
                  CHANNELS 3 Zrotation Xrotation Yrotation
                  End Site
                  {
                    OFFSET -1.69225 -0.51767 -0.607171
                  }
                }
              }
            }
          }
        }
      }
      JOINT lCollar
      {
        OFFSET 2.68224 19.2634 -4.8768
        CHANNELS 3 Zrotation Xrotation Yrotation
        JOINT lShldr
        {
          OFFSET 8.77824 -1.95073 1.46304
          CHANNELS 3 Zrotation Xrotation Yrotation
          JOINT lForeArm
          {
            OFFSET 28.1742 -1.7115 0.48768
            CHANNELS 3 Zrotation Xrotation Yrotation
            JOINT lHand
            {
              OFFSET 22.5879 0.773209 7.07136
              CHANNELS 3 Zrotation Xrotation Yrotation
              JOINT lThumb1
              {
                OFFSET 1.2192 -0.487915 3.41376
                CHANNELS 3 Zrotation Xrotation Yrotation
                JOINT lThumb2
                {
                  OFFSET 3.37035 -0.52449 3.41376
                  CHANNELS 3 Zrotation Xrotation Yrotation
                  End Site
                  {
                    OFFSET 1.78271 -1.18214 1.43049
                  }
                }
              }
              JOINT lIndex1
              {
                OFFSET 7.75947 0.938293 5.60832
                CHANNELS 3 Zrotation Xrotation Yrotation
                JOINT lIndex2
                {
                  OFFSET 2.54057 -0.884171 1.56538
                  CHANNELS 3 Zrotation Xrotation Yrotation
                  End Site
                  {
                    OFFSET 1.62519 -0.234802 1.16502
                  }
                }
              }
              JOINT lMid1
              {
                OFFSET 8.24714 1.18213 3.41376
                CHANNELS 3 Zrotation Xrotation Yrotation
                JOINT lMid2
                {
                  OFFSET 3.10165 -0.590103 1.0647
                  CHANNELS 3 Zrotation Xrotation Yrotation
                  End Site
                  {
                    OFFSET 2.48547 -0.328903 0.83742
                  }
                }
              }
              JOINT lRing1
              {
                OFFSET 8.82822 0.546677 1.51678
                CHANNELS 3 Zrotation Xrotation Yrotation
                JOINT lRing2
                {
                  OFFSET 2.60934 -0.819778 -0.0198488
                  CHANNELS 3 Zrotation Xrotation Yrotation
                  End Site
                  {
                    OFFSET 2.33842 -0.294052 0.168128
                  }
                }
              }
              JOINT lPinky1
              {
                OFFSET 8.27202 -0.0477905 -0.4584
                CHANNELS 3 Zrotation Xrotation Yrotation
                JOINT lPinky2
                {
                  OFFSET 1.82734 -0.647385 -0.700984
                  CHANNELS 3 Zrotation Xrotation Yrotation
                  End Site
                  {
                    OFFSET 1.69225 -0.51767 -0.607171
                  }
                }
              }
            }
          }
        }
      }
    }
  }
  JOINT rButtock
  {
    OFFSET -8.77824 4.35084 1.2192
    CHANNELS 3 Zrotation Xrotation Yrotation
    JOINT rThigh
    {
      OFFSET 0 -1.70687 -2.19456
      CHANNELS 3 Zrotation Xrotation Yrotation
      JOINT rShin
      {
        OFFSET 0 -36.8199 0.73152
        CHANNELS 3 Zrotation Xrotation Yrotation
        JOINT rFoot
        {
          OFFSET 0.73152 -45.1104 -5.12064
          CHANNELS 3 Zrotation Xrotation Yrotation
          End Site
          {
            OFFSET -1.1221 -3.69964 12.103
          }
        }
      }
    }
  }
  JOINT lButtock
  {
    OFFSET 8.77824 4.35084 1.2192
    CHANNELS 3 Zrotation Xrotation Yrotation
    JOINT lThigh
    {
      OFFSET 0 -1.70687 -2.19456
      CHANNELS 3 Zrotation Xrotation Yrotation
      JOINT lShin
      {
        OFFSET 0 -36.8199 0.73152
        CHANNELS 3 Zrotation Xrotation Yrotation
        JOINT lFoot
        {
          OFFSET -0.73152 -45.1104 -5.12064
          CHANNELS 3 Zrotation Xrotation Yrotation
          End Site
          {
            OFFSET 1.1221 -3.69964 12.103
          }
        }
      }
    }
  }
}
MOTION
Frames:	6
Frame Time:	0.00833333
37.3548 84.3737 -192.306 0.788401 0.000540153 -0.0144449 -1.03703 -0.00414445 -0.0285996 -0.28591 -0.00382814 -0.0495307 3.88662e-015 7.95139e-016 -1.2424e-017 1.15357e-014 9.54166e-015 -1.32005e-016 -0 0 0 -0 0 0 2.13576e-015 1.32005e-017 1.98785e-016 4.13302e-014 3.10601e-017 5.96354e-016 6.98678e-013 -1.9958e-013 1.59028e-014 7.9866e-012 2.57103e-013 -3.81667e-014 1.88313e-011 1.25776e-013 -4.45278e-014 3.25001e-011 2.16278e-013 -8.42847e-014 1.88297e-011 1.23246e-013 -5.40694e-014 7.73091 5.47488 0.417314 1.88297e-011 1.24837e-013 -4.13472e-014 2.90554 0.965183 0.102902 1.88335e-011 1.25433e-013 -4.92986e-014 10.2786 0.731801 0.0259123 1.88172e-011 1.32788e-013 -4.45278e-014 2.22167 -0.733487 -0.20892 1.84007e-015 1.32005e-017 -1.98785e-016 3.98034e-014 3.35449e-016 -5.96354e-016 6.95249e-013 2.22042e-013 -2.22639e-014 7.96941e-012 -1.38975e-013 6.36111e-015 1.87978e-011 1.79373e-013 -6.04305e-014 3.24723e-011 3.08514e-013 -8.74653e-014 1.87971e-011 1.76918e-013 -4.45278e-014 -7.73091 5.47488 -0.417314 1.88001e-011 1.7831e-013 -6.04305e-014 -2.90554 0.965183 -0.102902 1.87949e-011 1.78906e-013 -5.08889e-014 -10.2786 0.731801 -0.0259123 1.8808e-011 1.8487e-013 -5.40694e-014 -2.22167 -0.733487 0.20892 -2.03217e-016 0 -3.88251e-019 -0.272943 -1.9197 -0.0125387 -0.00938428 -2.07854 -0.0775741 -0.513153 3.99654 0.140443 2.03217e-016 0 3.88251e-019 -1.30505 -5.55693 0.114031 -0.000203754 4.50982 -0.0271129 0.527482 1.04555 -0.0815667 
39.2678 82.5538 -196.234 0.670564 2.16489 13.1036 -2.49966 2.66505 -2.10783 0.661453 -1.86726 -0.633308 -0.378642 0.44615 -1.53434 2.01138 4.01214 -2.98663 -0 0 0 -0 0 0 -4.31349e-014 4.24204e-014 -1.92703e-013 20.5316 8.31386 0.764446 -7.0856 -4.10984 9.93035 0.0528727 -5.10482 -0.707193 1.31138e-009 -7.3463e-011 -6.44116e-010 2.27745e-009 -1.58383e-010 -1.0973e-009 1.31138e-009 -7.34664e-011 -6.44125e-010 7.73091 5.47488 0.417314 1.31138e-009 -7.34686e-011 -6.44113e-010 2.90554 0.965183 0.102902 1.31138e-009 -7.34659e-011 -6.44122e-010 10.2786 0.731801 0.0259123 1.31137e-009 -7.34597e-011 -6.44117e-010 2.22167 -0.733487 -0.20892 -4.33241e-014 4.24176e-014 -1.93018e-013 -21.6037 11.5647 -1.89045 7.30726 -4.30325 -10.1453 -0.102884 -7.12587 0.973732 1.11485e-009 1.26393e-009 -3.41187e-010 1.92957e-009 2.1728e-009 -5.67275e-010 1.11485e-009 1.26393e-009 -3.41171e-010 -7.73091 5.47488 -0.417314 1.11485e-009 1.26393e-009 -3.41186e-010 -2.90554 0.965183 -0.102902 1.11485e-009 1.26393e-009 -3.41179e-010 -10.2786 0.731801 -0.0259123 1.11486e-009 1.26394e-009 -3.41184e-010 -2.22167 -0.733487 0.20892 -2.03217e-016 0 -3.88251e-019 -0.652931 -11.1933 -1.25294 0.0744888 11.4202 0.170051 -0.615725 -5.06793 -0.977056 2.03217e-016 0 3.88251e-019 -0.712732 -7.2004 -0.70613 -0.0610727 12.8782 -0.231561 0.0613859 -9.48654 -2.14997 
39.3007 82.5885 -195.163 -0.494716 4.08825 27.0594 -3.82442 5.47694 -4.34092 1.61393 -3.85186 -1.25793 -0.748635 0.928883 -3.15679 4.59435 8.21477 -6.19333 -0 0 0 -0 0 0 -9.26419e-014 9.03067e-014 -4.07623e-013 41.9889 17.0821 1.60548 -13.0426 -8.03755 20.5808 -0.0304258 -10.5073 -1.4749 2.7348e-009 -1.5894e-010 -1.35239e-009 4.74963e-009 -3.40663e-010 -2.30386e-009 2.7348e-009 -1.58944e-010 -1.3524e-009 7.73091 5.47488 0.417314 2.7348e-009 -1.58951e-010 -1.35239e-009 2.90554 0.965183 0.102902 2.7348e-009 -1.58946e-010 -1.3524e-009 10.2786 0.731801 0.0259123 2.73479e-009 -1.58941e-010 -1.35239e-009 2.22167 -0.733487 -0.20892 -9.27153e-014 9.03007e-014 -4.0785e-013 -43.5454 23.7622 -4.16792 13.3999 -8.40485 -21.0517 0.0598241 -14.6624 2.05592 2.32321e-009 2.66552e-009 -7.24099e-010 4.02124e-009 4.58257e-009 -1.20443e-009 2.32321e-009 2.66552e-009 -7.24082e-010 -7.73091 5.47488 -0.417314 2.32321e-009 2.66552e-009 -7.24097e-010 -2.90554 0.965183 -0.102902 2.32321e-009 2.66552e-009 -7.24093e-010 -10.2786 0.731801 -0.0259123 2.32321e-009 2.66552e-009 -7.24099e-010 -2.22167 -0.733487 0.20892 -2.03217e-016 0 -3.88251e-019 -1.53584 -20.9952 -2.70073 0.025254 25.6913 0.471706 -1.12102 -14.654 -2.229 2.03217e-016 0 3.88251e-019 -0.142597 -8.94369 -1.57811 -0.0550517 21.6934 -0.467179 -1.34207 -20.5392 -4.66281 
39.3011 82.6024 -194.134 -2.28894 5.1537 39.502 -4.8402 7.9608 -6.3206 2.44181 -5.59171 -1.80846 -1.06431 1.33461 -4.60412 7.30666 11.9042 -9.13604 -0 0 0 -0 0 0 -1.33676e-013 1.27235e-013 -5.78506e-013 60.8714 24.9229 2.5024 -17.1341 -10.8491 30.3105 -0.231163 -15.3049 -2.1909 3.89648e-009 -2.20641e-010 -1.93226e-009 6.76734e-009 -4.75582e-010 -3.29173e-009 3.89649e-009 -2.20646e-010 -1.93227e-009 7.73091 5.47488 0.417314 3.89648e-009 -2.20656e-010 -1.93225e-009 2.90554 0.965183 0.102902 3.89649e-009 -2.20649e-010 -1.93227e-009 10.2786 0.731801 0.0259123 3.89647e-009 -2.20645e-010 -1.93226e-009 2.22167 -0.733487 -0.20892 -1.33653e-013 1.27227e-013 -5.78655e-013 -62.1112 34.5262 -6.74903 17.5162 -11.2913 -31.0136 0.463141 -21.352 3.11245 3.30696e-009 3.79144e-009 -1.02344e-009 5.72376e-009 6.51778e-009 -1.70165e-009 3.30695e-009 3.79144e-009 -1.02342e-009 -7.73091 5.47488 -0.417314 3.30696e-009 3.79144e-009 -1.02344e-009 -2.90554 0.965183 -0.102902 3.30696e-009 3.79144e-009 -1.02344e-009 -10.2786 0.731801 -0.0259123 3.30696e-009 3.79144e-009 -1.02344e-009 -2.22167 -0.733487 0.20892 -2.03217e-016 0 -3.88251e-019 -2.77462 -29.6814 -4.21628 -0.181909 38.4148 0.836093 -1.95194 -23.1608 -3.48075 2.03217e-016 0 3.88251e-019 0.328514 -10.4802 -2.3682 0.0208275 29.6132 -0.71678 -3.45371 -30.3727 -7.18945 
39.2986 82.5857 -193.19 -3.80813 5.38913 48.0068 -5.50711 9.66708 -7.61371 3.04221 -6.72211 -2.16614 -1.29783 1.55173 -5.61246 9.43875 14.4366 -11.2514 -0 0 0 -0 0 0 -1.53529e-013 1.36768e-013 -6.39292e-013 73.8065 30.4597 3.35875 -19.4009 -12.2764 37.2446 -0.443999 -18.5997 -2.7109 4.40383e-009 -2.229e-010 -2.19111e-009 7.64888e-009 -4.92099e-010 -3.73287e-009 4.40383e-009 -2.22905e-010 -2.19112e-009 7.73091 5.47488 0.417314 4.40383e-009 -2.22915e-010 -2.19111e-009 2.90554 0.965183 0.102902 4.40383e-009 -2.22909e-010 -2.19112e-009 10.2786 0.731801 0.0259123 4.40382e-009 -2.22904e-010 -2.19111e-009 2.22167 -0.733487 -0.20892 -1.53455e-013 1.36759e-013 -6.39391e-013 -74.2743 41.8645 -9.07891 19.7434 -12.6924 -38.0605 0.903861 -25.9489 3.92159 3.72919e-009 4.22821e-009 -1.11385e-009 6.45338e-009 7.26663e-009 -1.84905e-009 3.72919e-009 4.22821e-009 -1.11384e-009 -7.73091 5.47488 -0.417314 3.72919e-009 4.22821e-009 -1.11385e-009 -2.90554 0.965183 -0.102902 3.72919e-009 4.22821e-009 -1.11385e-009 -10.2786 0.731801 -0.0259123 3.7292e-009 4.22821e-009 -1.11386e-009 -2.22167 -0.733487 0.20892 -2.03217e-016 0 -3.88251e-019 -3.87667 -35.6346 -5.44733 -0.470402 47.2719 1.20002 -2.76192 -29.0065 -4.45349 2.03217e-016 0 3.88251e-019 0.654335 -11.5057 -2.936 0.125432 35.2957 -0.936054 -5.24064 -37.3602 -8.81966 
39.3076 82.583 -192.09 -4.3595 5.2997 50.9862 -5.88839 10.3137 -7.91743 3.37324 -6.9819 -2.25142 -1.44915 1.50172 -6.01087 10.358 15.4238 -12.1007 -0 0 0 -0 0 0 -1.40264e-013 9.9376e-014 -5.20225e-013 78.6674 32.7793 4.02174 -20.2024 -12.7248 40.0568 -0.538351 -19.7792 -2.90462 3.88047e-009 -1.16299e-010 -1.95086e-009 6.74095e-009 -2.9594e-010 -3.32419e-009 3.88048e-009 -1.16305e-010 -1.95087e-009 7.73091 5.47488 0.417314 3.88047e-009 -1.16309e-010 -1.95086e-009 2.90554 0.965183 0.102902 3.88047e-009 -1.16307e-010 -1.95087e-009 10.2786 0.731801 0.0259123 3.88046e-009 -1.16298e-010 -1.95086e-009 2.22167 -0.733487 -0.20892 -1.40213e-013 9.93691e-014 -5.20312e-013 -78.8153 44.5507 -10.1315 20.4788 -13.0619 -40.7878 1.10586 -27.6253 4.24003 3.26243e-009 3.5604e-009 -8.59644e-010 5.64231e-009 6.11332e-009 -1.41857e-009 3.26243e-009 3.56041e-009 -8.5963e-010 -7.73091 5.47488 -0.417314 3.26243e-009 3.56041e-009 -8.59642e-010 -2.90554 0.965183 -0.102902 3.26243e-009 3.56041e-009 -8.59643e-010 -10.2786 0.731801 -0.0259123 3.26243e-009 3.56041e-009 -8.59653e-010 -2.22167 -0.733487 0.20892 -2.03217e-016 0 -3.88251e-019 -4.21615 -37.8216 -5.92132 -0.632789 50.7394 1.38262 -3.10373 -31.164 -4.81313 2.03217e-016 0 3.88251e-019 0.791632 -11.811 -3.23566 0.185152 37.8075 -1.06202 -5.25553 -40.5864 -8.26605 
